<?xml version="1.0" encoding="utf-8"?>

<!DOCTYPE svg PUBLIC "-//W3C//DTD SVG 1.1//EN" "http://www.w3.org/Graphics/SVG/1.1/DTD/svg11.dtd">
<!-- Uploaded to: SVG Repo, www.svgrepo.com, Generator: SVG Repo Mixer Tools -->
<svg height="800px" width="800px" version="1.1" id="_x32_" xmlns="http://www.w3.org/2000/svg" xmlns:xlink="http://www.w3.org/1999/xlink" 
	 viewBox="0 0 512 512"  xml:space="preserve">
<style type="text/css">
	.st0{fill:#000000;}
</style>
<g>
	<path class="st0" d="M437.276,414.686c3.512-22.157,1.446-47.289-11.063-74.848c-34.439-75.922-110.485-82.832-163.496-108.181
		c-19.172-9.162-31.711-23.624-38.612-42.062c0,0-10.216-26.454-5.185-44.933c5.185-19.017,23.324-39.438,29.966-65.096
		c16.703-64.529,2.882-99.092-40.337-67.99c-44.324,31.929-44.933,111.776-44.933,111.776s1.157,2.872-1.147,7.5
		c-3.626,7.293-17.715,4.814-16.135-57.05c1.064-41.534-34.573-101.973-62.214-29.387c-13.986,36.68,24.212,99.67,24.212,99.67
		s-28.344,16.868-46.689,45.512C34,232.804,42.285,252.14,49.546,269.101c15.556,36.299,57.029,1.725,79.506,77.772
		c8.594,29.056,6.797,115.34-7.727,127.786c-14.523,12.457-4.142,33.2-4.142,33.2h62.215c0,0,2.996-63.02,21.092-52.681
		c32.27,18.428,59.788,15.34,36.98,23.634C214.664,487.096,216.73,512,216.73,512h157.639c6.229-3.905,21.186-15.814,35.12-34.181
		c6.384,5.568,14.616,9.049,23.748,9.049c20.06,0,36.298-16.258,36.298-36.298C469.534,431.915,455.392,416.71,437.276,414.686z"/>
</g>
</svg>